<?xml version="1.0" encoding="utf-8"?>
<!-- Generator: Adobe Illustrator 24.1.0, SVG Export Plug-In . SVG Version: 6.00 Build 0)  -->
<svg version="1.1" id="Layer_1" xmlns="http://www.w3.org/2000/svg" xmlns:xlink="http://www.w3.org/1999/xlink" x="0px" y="0px"
	 viewBox="0 0 580 400" style="enable-background:new 0 0 580 400;" xml:space="preserve">
<style type="text/css">
	.st0{display:none;}
	.st1{display:inline;fill:none;}
	.st2{stroke:#000000;stroke-width:1.5;}
	.st3{stroke:#000000;stroke-width:1.5;stroke-miterlimit:4;}
	.st4{stroke:#000000;stroke-width:1.2738;}
	.st5{stroke:#000000;stroke-width:1.2171;}
	.st6{fill:none;}
	.st7{fill:none;stroke:#000000;stroke-width:2;stroke-miterlimit:10;}
	.st8{fill:none;stroke:#000000;stroke-width:2.1485;stroke-miterlimit:10;}
	.st9{fill:none;stroke:#000000;stroke-width:2.3312;stroke-miterlimit:10;}
	.st10{fill:none;stroke:#000000;stroke-width:2.2877;stroke-miterlimit:10;}
	.st11{font-family:'ArialMT';}
	.st12{font-size:21px;}
	.st13{fill:none;stroke:#000000;stroke-width:2.0394;stroke-miterlimit:10;}
	.MK{opacity:0.7;fill:MK_fill;}
	.st15{fill:url(#path24548_1_);}
	.st16{fill:url(#path24550_1_);}
	.st17{fill:url(#path24552_1_);}
	.st18{fill:url(#path24554_1_);}
	.st19{fill:url(#path24556_1_);}
	.st20{fill:url(#path24560_1_);}
	.st21{fill:url(#path24562_1_);}
	.st22{fill:url(#path24564_1_);}
	.st23{fill:url(#path24566_1_);}
	.st24{fill:url(#path24568_1_);}
	.st25{fill:url(#path26268_1_);}
	.st26{fill:url(#path26270_1_);}
	.st27{fill:url(#path26272_1_);}
	.st28{fill:url(#path26274_1_);}
	.st29{fill:url(#path26276_1_);}
	.st30{fill:url(#path26278_1_);}
	.st31{fill:url(#path26280_1_);}
	.st32{fill:url(#path26282_1_);}
	.st33{fill:url(#path26284_1_);}
	.st34{fill:url(#path26286_1_);}
	.st35{fill:url(#path26288_1_);}
	.st36{fill:none;stroke:#5E0CB0;stroke-width:1.5688;stroke-linecap:round;stroke-linejoin:round;stroke-miterlimit:31.5025;}
	.st37{fill:none;stroke:#C390F5;stroke-width:1.5688;stroke-linecap:round;stroke-linejoin:round;stroke-miterlimit:31.5025;}
	.st38{fill:none;stroke:#885BB4;stroke-width:7.843315e-02;stroke-linecap:round;stroke-linejoin:round;stroke-miterlimit:31.5025;}
	.st39{fill:none;stroke:#000000;stroke-width:2.1039;stroke-miterlimit:10;}
	.st40{fill:none;stroke:#000000;stroke-width:2.1445;stroke-miterlimit:10;}
	.Neutro{opacity:0.7;fill:Neutro_fill;}
	.st42{fill:#DCB8FF;}
	.st43{fill:none;stroke:#F6EBFF;stroke-width:0.659;stroke-linecap:round;stroke-linejoin:round;stroke-miterlimit:8.1561;}
	.st44{fill:none;stroke:#5706A8;stroke-width:0.659;stroke-linecap:round;stroke-linejoin:round;stroke-miterlimit:8.1561;}
	.st45{fill:none;stroke:#B07AE7;stroke-width:0.3295;stroke-linecap:round;stroke-linejoin:round;stroke-miterlimit:8.1561;}
	.st46{fill:none;stroke:#000000;stroke-width:1.615;stroke-miterlimit:10;}
	.st47{fill:none;stroke:#000000;stroke-width:1.5;stroke-miterlimit:10;}
	.st48{fill:none;stroke:#000000;stroke-width:1.645;}
	.st49{fill:none;stroke:#000000;stroke-width:1.6;}
</style>
<g>
	<g id="canvasGrid" class="st0">
		<rect class="st1" width="580" height="400"/>
	</g>
</g>
<g>
	<ellipse id="HSC" class="st2" cx="317.3" cy="22" rx="18.5" ry="18.5"/>
	
		<ellipse id="DC" transform="matrix(0.8783 -0.4781 0.4781 0.8783 -159.8165 58.9068)" class="st3" cx="35.8" cy="343.4" rx="29.5" ry="22"/>
	<ellipse id="MPP" class="st2" cx="317.3" cy="102.4" rx="18.5" ry="18.5"/>
	<ellipse id="CLP" class="st2" cx="159.7" cy="212.5" rx="18.5" ry="18.5"/>
	
		<ellipse id="NK" transform="matrix(0.8783 -0.4781 0.4781 0.8783 -151.7881 90.4597)" class="st3" cx="101.8" cy="343.4" rx="29.5" ry="22"/>
	
		<ellipse id="T" transform="matrix(0.8783 -0.4781 0.4781 0.8783 -142.6783 122.2489)" class="st3" cx="168.8" cy="341.4" rx="29.5" ry="22"/>
	
		<ellipse id="B" transform="matrix(0.8783 -0.4781 0.4781 0.8783 -135.4377 153.4918)" class="st3" cx="233.8" cy="342.8" rx="29.5" ry="22"/>
	<path id="Mono" class="st2" d="M386.8,363.4L386.8,363.4c-0.6,0-1.1,0-1.7-0.1l0,0l-4.8,5.6l-1.2-0.3c-1.4-0.4-2.7-0.8-4-1.3l0,0
		l-1.1-0.5l0.3-7c-1-0.6-2-1.4-2.9-2.1l0,0l-7.6,1.5l-0.7-0.9c-0.8-1.1-1.5-2.2-2.1-3.4l0,0l-0.5-1l5.1-5.1
		c-0.3-1.1-0.5-2.2-0.6-3.4l0,0l-6.8-3.3l0.1-1.1c0.1-1.3,0.4-2.6,0.8-3.8l0,0l0.3-1.1l7.6-1c0.5-1,1.2-2,1.9-2.9l0,0l-2.9-6.5
		l0.9-0.8c1-0.9,2.1-1.7,3.3-2.5l0,0l1-0.6l6.6,3.7c1.1-0.5,2.3-0.8,3.5-1.1l0,0l2.4-6.7l1.2-0.1c0.7,0,1.4-0.1,2.1-0.1l0,0
		c0.8,0,1.5,0,2.1,0.1l0,0l1.2,0.1l2.4,6.8c1.1,0.3,2.3,0.7,3.3,1.1l0,0l6.6-3.8l1,0.6c1.1,0.8,2.2,1.6,3.3,2.5l0,0l0.9,0.8l-3,6.6
		c0.6,0.9,1.2,1.8,1.7,2.7l0,0l7.8,1l0.3,1.1c0.3,1.2,0.6,2.5,0.8,3.8l0,0l0.1,1.1l-7,3.4c-0.1,1-0.3,2.1-0.6,3.1l0,0l5.3,5.3
		l-0.5,1c-0.6,1.1-1.3,2.3-2.1,3.4l0,0l-0.7,0.9l-7.8-1.5l-2.4,9.2l-1.1,0.5c-1.3,0.5-2.6,1-4,1.3l0,0l-1.2,0.3l-4.8-5.6l0,0
		L386.8,363.4L386.8,363.4z"/>
	<ellipse id="CMP" class="st2" cx="409.7" cy="171.9" rx="18.5" ry="18.5"/>
	<path id="GMP" class="st4" d="M323.4,246.6l5.4-9.3l9.3-5.4h10.7l9.3,5.4l5.4,9.3v10.7l-5.4,9.3l-9.3,5.4H338l-9.3-5.4l-5.4-9.3
		L323.4,246.6L323.4,246.6z"/>
	<path id="MEP" class="st5" d="M474.8,244.9l5.1-8.9l8.9-5.1H499l8.9,5.1l5.1,8.9v10.2l-5.1,8.9l-8.9,5.1h-10.2l-8.9-5.1l-5.1-8.9
		V244.9z"/>
	<ellipse id="Ery" class="st2" cx="525.5" cy="333.8" rx="9.1" ry="9.1"/>
	<ellipse id="Ery" class="st2" cx="554.6" cy="336.3" rx="9.1" ry="9.1"/>
	<ellipse id="Ery" class="st2" cx="540" cy="355" rx="9.1" ry="9.1"/>
</g>
<g>
	<line class="st6" x1="317.3" y1="83.9" x2="317.3" y2="41.3"/>
	<g>
		<line class="st7" x1="317.3" y1="69.6" x2="317.3" y2="41.3"/>
		<g>
			<polygon points="317.3,83.9 325.5,63.8 317.3,68.6 309.1,63.8 			"/>
		</g>
	</g>
</g>
<g>
	<line class="st6" x1="103.2" y1="251.9" x2="172.8" y2="212.5"/>
</g>
<g>
	<line class="st6" x1="469.9" y1="227.8" x2="422.5" y2="189"/>
	<g>
		<line class="st8" x1="468.5" y1="217.7" x2="433.1" y2="188.6"/>
		<g>
			<polygon points="480.5,227.5 457.1,219.6 467.6,216.9 470.1,207.7 			"/>
		</g>
	</g>
</g>
<g>
	<line class="st6" x1="354.1" y1="228.4" x2="392.4" y2="186.4"/>
	<g>
		<line class="st9" x1="365.3" y1="216.1" x2="392.4" y2="186.4"/>
		<g>
			<polygon points="354.1,228.4 363.3,204.1 366.1,215.2 376.5,218 			"/>
		</g>
	</g>
</g>
<g>
	<line class="st6" x1="126" y1="316.4" x2="144.7" y2="269.8"/>
</g>
<g>
	<line class="st6" x1="538" y1="319.6" x2="509.2" y2="272"/>
	<g>
		<line class="st10" x1="528.4" y1="303.7" x2="509.2" y2="272"/>
		<g>
			<polygon points="538,319.6 531.4,292.9 527.6,302.5 517.4,301.4 			"/>
		</g>
	</g>
</g>
<text transform="matrix(1 0 0 1 249.2328 28.0359)" class="st11 st12">HSC</text>
<text transform="matrix(1 0 0 1 249.2329 106.753)" class="st11 st12">MPP</text>
<text transform="matrix(1 0 0 1 86.8184 390.4608)" class="st11 st12">NK</text>
<text transform="matrix(1 0 0 1 231.6342 389.4615)" class="st11 st12">B</text>
<text transform="matrix(1 0 0 1 159.705 390.4611)" class="st11 st12">T</text>
<text transform="matrix(1 0 0 1 16.233 389.461)" class="st11 st12">DC</text>
<text transform="matrix(1 0 0 1 138.0102 182.2453)" class="st11 st12">CLP</text>
<text transform="matrix(1 0 0 1 386.8765 145.7313)" class="st11 st12">CMP</text>
<text transform="matrix(1 0 0 1 529.6649 389.4612)" class="st11 st12">E</text>
<text transform="matrix(1 0 0 1 542.9965 389.4612)" class="st11 st12">r</text>
<text transform="matrix(1 0 0 1 550.3885 389.4612)" class="st11 st12">y</text>
<text transform="matrix(1 0 0 1 362.693 390.4611)" class="st11 st12">M</text>
<text transform="matrix(1 0 0 1 379.7028 390.4611)" class="st11 st12">o</text>
<text transform="matrix(1 0 0 1 391.2316 390.4611)" class="st11 st12">n</text>
<text transform="matrix(1 0 0 1 402.8863 390.4611)" class="st11 st12">o</text>
<text transform="matrix(1 0 0 1 482.5795 217.6599)" class="st11 st12">MEP</text>
<text transform="matrix(1 0 0 1 294.993 224.8302)" class="st11 st12">GMP</text>
<g>
	<line class="st6" x1="467.6" y1="314.1" x2="485.9" y2="273.8"/>
	<g>
		<line class="st13" x1="473.7" y1="300.6" x2="485.9" y2="273.8"/>
		<g>
			<polygon points="467.6,314.1 483.7,298.4 474.2,299.6 468.7,291.7 			"/>
		</g>
	</g>
</g>
<g id="MK" transform="matrix(1.9895831,0,0,1.9895831,-386.42267,-527.38355)">
	<path id="MK_1_" class="MK" d="M416.3,432L416.3,432c1-1.6,1.6-2.6,2-2.9c1.3-1.3,2.5-2.2,3.6-2.7c1.3-0.7,2.8-1,4.3-0.9
		c2.5,0.1,4.7,0.8,6.8,2.1l0,0l-0.1,0.2c0.3-0.1,0.7,0.2,1.2,0.9l0.3-0.1l0.7,0.6c2.4,2.1,3.6,5.1,3.7,9c0.1,2.8-0.5,5-1.8,6.5l0,0
		l-0.1,0.1h0.1l0,0l-0.8,0.5l-0.4,0.4l-0.5,0.3c-1.2,0.6-2.4,1-3.8,1.2c-1.2,0.1-2.7,0.1-4.5,0c-1.2-0.1-2.4-0.3-3.4-0.5l0.1-0.4
		l-0.8-0.1l-0.1,0.4l0,0h-0.2c-2-0.5-3.6-1.3-4.8-2.3c-1.2-1-2.1-2.2-2.7-3.5s-0.8-2.7-0.7-4.1v-0.3l0,0l0.3,0.1l0.4-1.6l-0.2-0.1
		l0.4-0.8l0.3,0.1c0-1,0.3-1.6,1-1.9L416.3,432L416.3,432z M437,444.6L437,444.6L437,444.6z M415.3,433.7L415.3,433.7L415.3,433.7z"
		/>
	
		<radialGradient id="path24548_1_" cx="3529.5332" cy="-1105.9742" r="163.1591" gradientTransform="matrix(5.491902e-02 1.634354e-02 1.898732e-02 -6.405208e-02 261.0792 299.2119)" gradientUnits="userSpaceOnUse">
		<stop  offset="0" style="stop-color:#A857F9"/>
		<stop  offset="8.627451e-02" style="stop-color:#AA54FF"/>
		<stop  offset="0.6" style="stop-color:#AA54FF"/>
		<stop  offset="1" style="stop-color:#6412B7"/>
	</radialGradient>
	<path id="path24548" class="st15" d="M433,427.5L433,427.5L433,427.5c0-0.3,0.1-0.5,0.3-0.7c0.2-0.2,0.4-0.3,0.7-0.3
		s0.5,0.1,0.7,0.3c0.2,0.2,0.3,0.4,0.3,0.7s-0.1,0.5-0.3,0.7c-0.1,0.1-0.2,0.2-0.3,0.2l-0.3,0.1c-0.5-0.7-0.9-0.9-1.2-0.9L433,427.5
		z"/>
	
		<radialGradient id="path24550_1_" cx="1396.214" cy="-1621.7084" r="163.1674" gradientTransform="matrix(4.109913e-02 -3.304755e-02 -4.518497e-02 -5.612067e-02 305.8573 400.4843)" gradientUnits="userSpaceOnUse">
		<stop  offset="0" style="stop-color:#A857F9"/>
		<stop  offset="8.627451e-02" style="stop-color:#AA54FF"/>
		<stop  offset="0.6" style="stop-color:#AA54FF"/>
		<stop  offset="1" style="stop-color:#6412B7"/>
	</radialGradient>
	<path id="path24550" class="st16" d="M437,444.7c0.2,0,0.3,0.1,0.4,0.2c0.2,0.2,0.3,0.4,0.3,0.7c0,0.3-0.1,0.5-0.3,0.7
		c-0.2,0.2-0.4,0.3-0.7,0.3c-0.3,0-0.5-0.1-0.7-0.3c-0.2-0.2-0.3-0.4-0.3-0.7l0.4-0.4L437,444.7L437,444.7L437,444.7z M435.8,445.6
		L435.8,445.6L435.8,445.6L435.8,445.6z"/>
	
		<radialGradient id="path24552_1_" cx="3080.8667" cy="-8.4448" r="163.1674" gradientTransform="matrix(7.174321e-02 1.045500e-02 1.490143e-02 -0.1019 201.998 413.9364)" gradientUnits="userSpaceOnUse">
		<stop  offset="0" style="stop-color:#A857F9"/>
		<stop  offset="8.627451e-02" style="stop-color:#AA54FF"/>
		<stop  offset="0.6" style="stop-color:#AA54FF"/>
		<stop  offset="1" style="stop-color:#6412B7"/>
	</radialGradient>
	<path id="path24552" class="st17" d="M423.5,446.6l0.2,0.1c0.2,0.2,0.3,0.5,0.3,0.9c0,0.3-0.1,0.6-0.3,0.8
		c-0.2,0.2-0.5,0.4-0.8,0.4s-0.6-0.1-0.8-0.4c-0.2-0.2-0.3-0.5-0.3-0.8s0.1-0.6,0.3-0.9c0.2-0.2,0.4-0.3,0.6-0.3l0,0l0.1-0.4
		l0.8,0.1L423.5,446.6L423.5,446.6z"/>
	
		<radialGradient id="path24554_1_" cx="1533.1869" cy="3417.2893" r="163.1674" gradientTransform="matrix(-1.093573e-02 6.801778e-02 7.979450e-02 1.273831e-02 158.3846 287.4315)" gradientUnits="userSpaceOnUse">
		<stop  offset="0" style="stop-color:#A857F9"/>
		<stop  offset="8.627451e-02" style="stop-color:#AA54FF"/>
		<stop  offset="0.6" style="stop-color:#AA54FF"/>
		<stop  offset="1" style="stop-color:#6412B7"/>
	</radialGradient>
	<path id="path24554" class="st18" d="M414.3,436.2V436c-0.1,0.1-0.3,0.1-0.5,0.1c-0.3,0-0.5-0.1-0.7-0.3c-0.2-0.2-0.3-0.4-0.3-0.7
		c0-0.3,0.1-0.5,0.3-0.7c0.2-0.2,0.4-0.3,0.7-0.3c0.3,0,0.5,0.1,0.7,0.3l0.2,0.3l0.1-0.2l0,0l0.2,0.1l-0.4,1.6L414.3,436.2z"/>
	
		<radialGradient id="path24556_1_" cx="1708.7018" cy="-3449.387" r="163.1674" gradientTransform="matrix(3.893602e-02 -3.617205e-02 -4.314210e-02 -4.650689e-02 200.1503 334.1331)" gradientUnits="userSpaceOnUse">
		<stop  offset="0" style="stop-color:#A857F9"/>
		<stop  offset="8.627451e-02" style="stop-color:#AA54FF"/>
		<stop  offset="0.6" style="stop-color:#AA54FF"/>
		<stop  offset="1" style="stop-color:#6412B7"/>
	</radialGradient>
	<path id="path24556" class="st19" d="M415.3,433.7L415.3,433.7c-0.3-0.1-0.5-0.2-0.7-0.4c-0.2-0.2-0.3-0.4-0.3-0.7s0.1-0.5,0.3-0.7
		c0.2-0.2,0.5-0.3,0.7-0.3c0.3,0,0.5,0.1,0.7,0.3l0.1,0.1l0,0l0.3-0.1c-0.6,0.3-0.9,0.9-1,1.9L415.3,433.7L415.3,433.7z"/>
	
		<radialGradient id="path24560_1_" cx="1041.2504" cy="-8146.3345" r="163.1674" gradientTransform="matrix(2.295302e-02 0 0 -2.295302e-02 210.7515 273.0972)" gradientUnits="userSpaceOnUse">
		<stop  offset="0" style="stop-color:#A857F9"/>
		<stop  offset="8.627451e-02" style="stop-color:#AA54FF"/>
		<stop  offset="0.6" style="stop-color:#AA54FF"/>
		<stop  offset="1" style="stop-color:#6412B7"/>
	</radialGradient>
	<path id="path24560" class="st20" d="M420.6,425.4c-0.1,0.1-0.2,0.2-0.4,0.2c-0.2,0-0.3-0.1-0.4-0.2s-0.2-0.3-0.2-0.4
		s0.1-0.3,0.2-0.4s0.2-0.2,0.4-0.2c0.2,0,0.3,0.1,0.4,0.2s0.2,0.3,0.2,0.4S420.7,425.2,420.6,425.4z"/>
	
		<radialGradient id="path24562_1_" cx="909.3149" cy="-6431.1743" r="163.1674" gradientTransform="matrix(2.872130e-02 0 0 -2.872130e-02 185.9613 375.2922)" gradientUnits="userSpaceOnUse">
		<stop  offset="0" style="stop-color:#A857F9"/>
		<stop  offset="8.627451e-02" style="stop-color:#AA54FF"/>
		<stop  offset="0.6" style="stop-color:#AA54FF"/>
		<stop  offset="1" style="stop-color:#6412B7"/>
	</radialGradient>
	<path id="path24562" class="st21" d="M415.7,445.6c-0.2,0-0.4-0.1-0.5-0.2s-0.2-0.3-0.2-0.5s0.1-0.4,0.2-0.5s0.3-0.2,0.5-0.2
		s0.4,0.1,0.5,0.2s0.2,0.3,0.2,0.5s-0.1,0.4-0.2,0.5C416,445.5,415.8,445.6,415.7,445.6z"/>
	
		<radialGradient id="path24564_1_" cx="-76.6853" cy="-4839.3442" r="163.1674" gradientTransform="matrix(1.862677e-02 -3.124497e-03 -3.124497e-03 -1.862677e-02 310.6934 300.9372)" gradientUnits="userSpaceOnUse">
		<stop  offset="0" style="stop-color:#A857F9"/>
		<stop  offset="8.627451e-02" style="stop-color:#AA54FF"/>
		<stop  offset="0.6" style="stop-color:#AA54FF"/>
		<stop  offset="1" style="stop-color:#6412B7"/>
	</radialGradient>
	<path id="path24564" class="st22" d="M439.9,431c-0.1,0.1-0.2,0.2-0.4,0.2c-0.1,0-0.3-0.1-0.4-0.2s-0.1-0.2-0.1-0.4
		c0-0.1,0-0.3,0.1-0.4s0.2-0.1,0.4-0.1c0.1,0,0.3,0,0.4,0.1s0.2,0.2,0.2,0.4S440,430.9,439.9,431z"/>
	
		<radialGradient id="path24566_1_" cx="866.9109" cy="-5879.9214" r="163.1674" gradientTransform="matrix(3.124497e-02 0 0 -3.124497e-02 305.2344 350.4618)" gradientUnits="userSpaceOnUse">
		<stop  offset="0" style="stop-color:#A857F9"/>
		<stop  offset="8.627451e-02" style="stop-color:#AA54FF"/>
		<stop  offset="0.6" style="stop-color:#AA54FF"/>
		<stop  offset="1" style="stop-color:#6412B7"/>
	</radialGradient>
	<path id="path24566" class="st23" d="M439.6,440.5c-0.2,0-0.4-0.1-0.5-0.2s-0.2-0.3-0.2-0.5s0.1-0.4,0.2-0.5
		c0.2-0.1,0.3-0.2,0.5-0.2s0.4,0.1,0.5,0.2c0.2,0.2,0.2,0.3,0.2,0.5s-0.1,0.4-0.2,0.5S439.8,440.5,439.6,440.5z"/>
	
		<radialGradient id="path24568_1_" cx="884.215" cy="-6104.875" r="163.1674" gradientTransform="matrix(3.016341e-02 0 0 -3.016341e-02 285.0388 394.0034)" gradientUnits="userSpaceOnUse">
		<stop  offset="0" style="stop-color:#A857F9"/>
		<stop  offset="8.627451e-02" style="stop-color:#AA54FF"/>
		<stop  offset="0.6" style="stop-color:#AA54FF"/>
		<stop  offset="1" style="stop-color:#6412B7"/>
	</radialGradient>
	<path id="path24568" class="st24" d="M435.9,448.9c-0.1,0.1-0.3,0.2-0.5,0.2s-0.3-0.1-0.5-0.2c-0.1-0.1-0.2-0.3-0.2-0.5
		s0.1-0.4,0.2-0.5s0.3-0.2,0.5-0.2s0.3,0.1,0.5,0.2c0.1,0.1,0.2,0.3,0.2,0.5S436.1,448.8,435.9,448.9z"/>
	
		<radialGradient id="path26268_1_" cx="-1141.4913" cy="-1344.0868" r="163.3847" gradientTransform="matrix(4.686743e-03 -7.847288e-02 -0.1037 -6.248988e-03 292.4945 335.7307)" gradientUnits="userSpaceOnUse">
		<stop  offset="0.8706" style="stop-color:#5200A4"/>
		<stop  offset="0.9882" style="stop-color:#480090"/>
	</radialGradient>
	<path id="path26268" class="st25" d="M424.8,432.6l0.1-0.1c0.4-0.3,1-0.5,1.6-0.5s1.1,0.2,1.6,0.5l0,0c-0.2,0.3-0.4,0.6-0.4,1
		c0,0.5,0.2,0.9,0.6,1.2l-0.2,0.2c-0.4,0.3-1,0.5-1.6,0.5h-0.1h-0.1c-0.2-0.2-0.4-0.4-0.6-0.6c-0.2-0.1-0.4-0.3-0.7-0.3
		c0.1-0.3,0.2-0.7,0.1-1.1C425.1,433.1,425,432.8,424.8,432.6L424.8,432.6z"/>
	
		<radialGradient id="path26270_1_" cx="1872.2699" cy="1668.6573" r="163.1722" gradientTransform="matrix(3.124497e-03 8.676443e-02 0.1253 -5.527947e-03 215.4227 280.2809)" gradientUnits="userSpaceOnUse">
		<stop  offset="0.8706" style="stop-color:#5200A4"/>
		<stop  offset="0.9882" style="stop-color:#480090"/>
	</radialGradient>
	<path id="path26270" class="st26" d="M428.1,432.5c0.1-0.1,0.2-0.3,0.4-0.4c0.5-0.4,1.1-0.6,1.9-0.5c0.7,0,1.4,0.2,1.9,0.6
		s0.8,0.9,0.8,1.4s-0.3,1-0.8,1.4l-0.4,0.2c-0.4,0.2-0.9,0.3-1.5,0.3s-1.1-0.1-1.5-0.4l-0.4-0.2l-0.2-0.2c-0.4-0.4-0.6-0.8-0.6-1.2
		C427.8,433.1,427.9,432.8,428.1,432.5L428.1,432.5z"/>
	
		<radialGradient id="path26272_1_" cx="2189.8625" cy="1802.1656" r="163.0268" gradientTransform="matrix(2.175128e-02 7.775185e-02 8.760636e-02 -2.103027e-02 224.8128 303.9548)" gradientUnits="userSpaceOnUse">
		<stop  offset="0.8706" style="stop-color:#5200A4"/>
		<stop  offset="0.9882" style="stop-color:#480090"/>
	</radialGradient>
	<path id="path26272" class="st27" d="M431.9,435.2c0.2,0.3,0.4,0.6,0.4,0.9v0.2c0,0.5-0.2,0.9-0.6,1.3s-0.8,0.6-1.4,0.6l-0.6-0.1
		c-0.3-0.1-0.6-0.2-0.8-0.4c-0.4-0.3-0.6-0.7-0.6-1.2s0.2-0.9,0.6-1.3c0.4,0.2,0.9,0.4,1.5,0.4C431,435.5,431.5,435.4,431.9,435.2z"
		/>
	
		<radialGradient id="path26274_1_" cx="-2433.4543" cy="-755.6904" r="163.1674" gradientTransform="matrix(-2.271266e-02 -5.431809e-02 -7.919357e-02 3.304755e-02 316.4816 330.3097)" gradientUnits="userSpaceOnUse">
		<stop  offset="0.8706" style="stop-color:#5200A4"/>
		<stop  offset="0.9882" style="stop-color:#480090"/>
	</radialGradient>
	<path id="path26274" class="st28" d="M432.3,436.1h0.3c0.5,0.1,0.7,0.3,0.9,0.7c0.1,0.3,0.1,0.7-0.2,1.1c-0.2,0.3-0.6,0.6-1,0.8
		c-0.5-0.2-1-0.4-1.6-0.3l-0.8,0.1l-0.1-0.3v-0.1l0.6,0.1c0.5,0,1-0.2,1.4-0.6s0.6-0.8,0.6-1.3L432.3,436.1L432.3,436.1z"/>
	
		<radialGradient id="path26276_1_" cx="1716.2717" cy="1497.391" r="163.2009" gradientTransform="matrix(1.718474e-02 8.700542e-02 0.1268 -1.958816e-02 211.3043 320.3114)" gradientUnits="userSpaceOnUse">
		<stop  offset="0.8706" style="stop-color:#5200A4"/>
		<stop  offset="0.9882" style="stop-color:#480090"/>
	</radialGradient>
	<path id="path26276" class="st29" d="M432.2,438.7l0.3,0.2c0.5,0.4,0.8,0.8,0.8,1.4s-0.3,1-0.8,1.4s-1.2,0.6-1.9,0.6
		c-0.6,0-1.2-0.1-1.7-0.4l-0.2-0.1c-0.5-0.4-0.8-0.8-0.8-1.4c0-0.4,0.1-0.8,0.4-1.1c0.1-0.1,0.2-0.2,0.4-0.3
		c0.3-0.3,0.7-0.4,1.1-0.5l0.8-0.1C431.3,438.3,431.8,438.5,432.2,438.7L432.2,438.7z"/>
	
		<radialGradient id="path26278_1_" cx="1556.683" cy="-653.9752" r="163.2057" gradientTransform="matrix(0.1102 -2.066972e-02 -3.773427e-02 -0.1144 230.4073 398.1324)" gradientUnits="userSpaceOnUse">
		<stop  offset="0.8706" style="stop-color:#5200A4"/>
		<stop  offset="0.9882" style="stop-color:#480090"/>
	</radialGradient>
	<path id="path26278" class="st30" d="M429,441.9c-0.1,0.2-0.2,0.4-0.4,0.6c-0.4,0.5-1,0.7-1.6,0.7c-0.7,0-1.3-0.2-1.8-0.7
		c-0.3-0.3-0.6-0.6-0.7-1l0.9,0.1c0.7,0,1.2-0.2,1.4-0.7c0.3-0.4,0.1-0.9-0.3-1.3c-0.4-0.3-0.8-0.7-1.3-1l0.1-0.1
		c0.3-0.1,0.6-0.2,1-0.2l0.7,0.1c0.4,0.1,0.8,0.3,1.1,0.6l0.3,0.3c-0.3,0.3-0.4,0.7-0.4,1.1c0,0.5,0.2,1,0.8,1.4L429,441.9
		L429,441.9z"/>
	
		<radialGradient id="path26280_1_" cx="453.5168" cy="1876.8722" r="163.2034" gradientTransform="matrix(-3.653252e-02 6.573460e-02 0.1322 6.477320e-02 192.2638 288.2743)" gradientUnits="userSpaceOnUse">
		<stop  offset="0.8706" style="stop-color:#5200A4"/>
		<stop  offset="0.9882" style="stop-color:#480090"/>
	</radialGradient>
	<path id="path26280" class="st31" d="M424.4,441.5c-0.4-0.1-0.8-0.2-1.2-0.4c-0.8-0.4-1.4-0.9-1.8-1.4c-0.4-0.6-0.5-1.1-0.2-1.6
		l0.1-0.2c0.2-0.3,0.6-0.4,1.1-0.4c0.6,0.1,1.3,0.3,2.1,0.8l0.6,0.4l0,0c0.5,0.3,0.9,0.6,1.3,1c0.5,0.5,0.6,0.9,0.3,1.3
		c-0.3,0.4-0.7,0.6-1.4,0.7L424.4,441.5L424.4,441.5z"/>
	
		<radialGradient id="path26282_1_" cx="-1056.6097" cy="-804.6838" r="163.1531" gradientTransform="matrix(-1.381987e-02 -9.950329e-02 -0.137 1.886714e-02 298.9679 346.6762)" gradientUnits="userSpaceOnUse">
		<stop  offset="0.8706" style="stop-color:#5200A4"/>
		<stop  offset="0.9882" style="stop-color:#480090"/>
	</radialGradient>
	<path id="path26282" class="st32" d="M421.3,437.8c-0.2-0.3-0.3-0.6-0.4-1c-0.1-0.6,0.2-1.2,0.7-1.7l0,0c0.4,0.2,0.8,0.4,1.3,0.4
		c0.7,0,1.2-0.1,1.6-0.6l0.4-0.5c0.2,0.1,0.5,0.2,0.7,0.3c0.3,0.2,0.5,0.4,0.6,0.6v0.1c0.2,0.3,0.3,0.5,0.3,0.9s0,0.7-0.2,1.1
		c-0.1,0.2-0.3,0.4-0.5,0.6s-0.4,0.4-0.7,0.5l-0.1,0.1l-0.6-0.4c-0.8-0.4-1.5-0.7-2.1-0.8C421.9,437.4,421.6,437.5,421.3,437.8
		L421.3,437.8z"/>
	
		<radialGradient id="path26284_1_" cx="668.2214" cy="-1419.0637" r="163.1681" gradientTransform="matrix(7.150287e-02 -7.258443e-02 -9.097081e-02 -8.291955e-02 245.8013 364.0984)" gradientUnits="userSpaceOnUse">
		<stop  offset="0.8706" style="stop-color:#5200A4"/>
		<stop  offset="0.9882" style="stop-color:#480090"/>
	</radialGradient>
	<path id="path26284" class="st33" d="M421.7,435.2c-0.2-0.1-0.3-0.2-0.5-0.4c-0.5-0.5-0.8-1-0.9-1.7c-0.1-0.6,0.1-1.2,0.5-1.6
		s1-0.6,1.6-0.6c0.7,0,1.3,0.3,1.8,0.8c0.3,0.3,0.5,0.5,0.7,0.8c0.1,0.3,0.2,0.6,0.3,0.9c0,0.4,0,0.8-0.1,1.1l-0.4,0.5
		c-0.4,0.4-1,0.6-1.6,0.6C422.5,435.6,422.1,435.4,421.7,435.2L421.7,435.2z"/>
	
		<radialGradient id="path26286_1_" cx="1932.1172" cy="-470.5303" r="163.1674" gradientTransform="matrix(0.106 0 0 -0.1259 223.3414 377.8492)" gradientUnits="userSpaceOnUse">
		<stop  offset="0.8706" style="stop-color:#5200A4"/>
		<stop  offset="0.9882" style="stop-color:#480090"/>
	</radialGradient>
	<path id="path26286" class="st34" d="M426.4,435.4h0.1c0.6,0,1.1-0.2,1.6-0.5l0.2-0.2l0.2,0.2l0.4,0.2c-0.4,0.4-0.6,0.8-0.6,1.3
		s0.2,0.9,0.6,1.2c0.2,0.2,0.5,0.3,0.8,0.4v0.1l0.1,0.3c-0.4,0.1-0.8,0.3-1.1,0.5c-0.1,0.1-0.3,0.2-0.4,0.3l-0.3-0.3
		c-0.3-0.3-0.7-0.5-1.1-0.6v-0.2c0-0.2-0.1-0.4-0.3-0.6c-0.1-0.1-0.2-0.2-0.3-0.2c0.2-0.3,0.2-0.7,0.2-1.1
		C426.6,436.1,426.5,435.8,426.4,435.4L426.4,435.4L426.4,435.4z M425.2,438.6L425.2,438.6l0.1-0.1l0,0L425.2,438.6z"/>
	
		<radialGradient id="path26288_1_" cx="1734.4315" cy="-745.5344" r="163.1674" gradientTransform="matrix(0.1339 1.610318e-02 8.772605e-03 -7.318524e-02 200.4875 355.7117)" gradientUnits="userSpaceOnUse">
		<stop  offset="0.8706" style="stop-color:#5200A4"/>
		<stop  offset="0.9882" style="stop-color:#480090"/>
	</radialGradient>
	<path id="path26288" class="st35" d="M426.4,437.4c0.1,0,0.2,0.1,0.3,0.2c0.2,0.2,0.3,0.4,0.3,0.6v0.2l-0.7-0.1
		c-0.4,0-0.7,0.1-1,0.2l0,0c0.2-0.1,0.5-0.3,0.7-0.5C426.2,437.8,426.3,437.6,426.4,437.4L426.4,437.4z"/>
	<path id="path33958" class="st36" d="M416.2,432L416.2,432c1-1.6,1.6-2.6,2-2.9c1.3-1.3,2.5-2.2,3.6-2.7c1.3-0.7,2.8-1,4.4-0.9
		c2.5,0.1,4.8,0.8,6.8,2.1h0.1c0-0.3,0.1-0.5,0.3-0.7c0.2-0.2,0.4-0.3,0.7-0.3s0.5,0.1,0.7,0.3c0.2,0.2,0.3,0.4,0.3,0.7
		c0,0.3-0.1,0.5-0.3,0.7c-0.1,0.1-0.2,0.2-0.3,0.2l0.7,0.6c2.4,2.1,3.6,5.1,3.7,9c0.1,2.8-0.5,5-1.8,6.5l-0.1,0.1h0.1
		c0.2,0,0.3,0.1,0.4,0.2c0.2,0.2,0.3,0.4,0.3,0.7c0,0.3-0.1,0.5-0.3,0.7c-0.2,0.2-0.4,0.3-0.7,0.3c-0.3,0-0.5-0.1-0.7-0.3
		c-0.2-0.2-0.3-0.4-0.3-0.7l-0.5,0.3c-1.2,0.6-2.4,1-3.8,1.2c-1.2,0.1-2.7,0.1-4.5,0c-1.2-0.1-2.4-0.3-3.4-0.5l0.2,0.1
		c0.2,0.2,0.3,0.5,0.3,0.9c0,0.3-0.1,0.6-0.3,0.8c-0.2,0.2-0.5,0.4-0.8,0.4s-0.6-0.1-0.8-0.4c-0.2-0.2-0.3-0.5-0.3-0.8
		s0.1-0.6,0.3-0.9c0.2-0.2,0.4-0.3,0.6-0.3h-0.2c-2-0.5-3.6-1.3-4.8-2.3c-1.2-1-2.1-2.2-2.7-3.5s-0.8-2.7-0.7-4.1v-0.3V436
		c-0.1,0.1-0.3,0.1-0.5,0.1c-0.3,0-0.5-0.1-0.7-0.3c-0.2-0.2-0.3-0.4-0.3-0.7c0-0.3,0.1-0.5,0.3-0.7c0.2-0.2,0.4-0.3,0.7-0.3
		c0.3,0,0.5,0.1,0.7,0.3l0.2,0.3l0.1-0.2l0.4-0.8v-0.1c-0.3,0-0.5-0.1-0.7-0.3c-0.2-0.2-0.3-0.4-0.3-0.7c0-0.3,0.1-0.5,0.3-0.7
		c0.2-0.2,0.5-0.3,0.7-0.3c0.3,0,0.5,0.1,0.7,0.3L416.2,432L416.2,432z M437,444.6L437,444.6L437,444.6L437,444.6z M435.8,445.6
		L435.8,445.6L435.8,445.6L435.8,445.6z M433,427.5L433,427.5 M433.1,427.5L433.1,427.5 M414.3,436.2L414.3,436.2 M414.9,434.5
		L414.9,434.5 M415.3,433.7L415.3,433.7"/>
	<path id="path33960" class="st37" d="M415.2,435.3c0.2-0.5,0.4-1,0.8-1.6"/>
	<path id="path33962" class="st37" d="M415.1,438.2c-0.2-0.7-0.2-1.4-0.1-2.2"/>
	<path id="path33964" class="st37" d="M416.9,432c1.3-2.4,3.3-4.3,5.8-5.5"/>
	<path id="path34036" class="st38" d="M425,432.7c0-0.1,0.2-0.2,0.6-0.3"/>
	<path id="path34038" class="st38" d="M429.2,435.3c-0.3,0.1-0.4,0.4-0.4,0.7"/>
	<path id="path34040" class="st38" d="M428.2,433.3c0.1-0.5,0.6-0.9,1.3-1.2"/>
	<path id="path34042" class="st38" d="M420.6,432.4c0.1-0.5,0.4-0.9,0.9-1.1"/>
	<path id="path34044" class="st38" d="M428.3,440.1c0-0.3,0.2-0.5,0.5-0.7"/>
	<path id="path34046" class="st38" d="M421.4,438.4c0.1-0.3,0.3-0.5,0.6-0.5"/>
</g>
<text transform="matrix(1 0 0 1 443.6641 390.4606)" class="st11 st12">MK</text>
<g>
	<line class="st6" x1="378.5" y1="313.3" x2="354.1" y2="273"/>
	<g>
		<line class="st39" x1="370.3" y1="299.8" x2="354.1" y2="273"/>
		<g>
			<polygon points="378.5,313.3 374,290 369.7,298.8 359.9,298.5 			"/>
		</g>
	</g>
</g>
<g>
	<line class="st6" x1="306.3" y1="316.9" x2="326.6" y2="272.3"/>
	<g>
		<line class="st40" x1="313.1" y1="301.9" x2="326.6" y2="272.3"/>
		<g>
			<polygon points="306.3,316.9 323.4,299.2 313.6,300.8 308.4,292.4 			"/>
		</g>
	</g>
</g>
<g id="Neutro" transform="translate(-52.171559,-5.9493883)">
	<path id="Neutro_1_" class="Neutro" d="M376.5,354.7l-5.7,7c-0.5,0.7-0.8,2.4-0.8,5.3c0,2.2-1.1,3.5-3.2,3.8
		c-8.3,1.5-16.5,1.4-24.4-0.5c-3.8-0.9-5.8-3.8-5.9-8.8l-1-17.9c-0.2-3.1,0.9-5.6,3.2-7.6c1.3-1.1,4.6-3,9.8-5.6
		c4.1-2.1,7.7-2.7,10.9-2c2,0.4,4.6,1.8,7.6,4.1c2.2,1.6,3.9,4.2,5,7.7s2.3,5.6,3.4,6.4C378.1,348.6,378.4,351.3,376.5,354.7
		L376.5,354.7z M341.9,345.5c-0.5,1.4-0.4,3.1,0.3,5.1c0.4,1.1,0.8,1.8,1.3,2.2c1.2,1.1,2.7,1.1,4.3,0.1c1.2-0.7,1.7-2.2,1.5-4.2
		l-0.9-2.9c-0.6-1.8-0.9-3.5-1-5.3s0.2-3.3,1.1-4.5s2.2-1.6,4-1.2l4.6,1.3c1.3,0.5,2.2,1.5,2.8,3.1c0.8,1.1,2.1,1.6,4,1.7l2.8-0.4
		c0.6-0.4,1.1-0.3,1.4,0.2c0.4,0.5,0.2,1.1-0.6,1.8c-1.9,0.3-3,1.2-3.2,2.6c-0.3,1.4,0,2.8,1.1,4.2c1,1.3,2.1,2.2,3.2,2.5
		c1.1,0.4,2,0.9,2.7,1.5c0.6,0.7,0.7,1.8,0.4,3.5c-0.4,1.7-1.6,2.6-3.5,2.7c-2,0.1-3.7-0.2-5.3-0.8c-1.6-0.7-3.4-0.8-5.5-0.5
		c-2.1,0.4-3.6,1-4.5,1.8c-1,0.9-1.1,2.1-0.5,3.7c0.7,1.5,1.6,2.7,2.9,3.4c1.4,0.8,3,1.2,4.7,1.1c1.9,0,3-0.8,3.2-2.5
		c0.2-1.5,0.7-2.6,1.6-3.4l0.3-0.2c1.4-0.7,2.7-1.3,4-1.7c1.4-0.4,2.4-1.4,3.1-2.9l1.7-5.1c0.5-1.9,0.4-3.4-0.3-4.3l-2-3.3l-2.5-3.6
		l-1.4-4.5c-0.4-1.2-1.3-2-2.4-2.3l-4.7-0.4c-0.4-0.1-0.8-0.5-1.3-1.2c-0.4-0.7-1.2-1-2.2-1.1c-1.1-0.1-2.4,0.1-4,0.7
		s-3.2,1.6-4.8,3c-1.6,1.4-2.6,2.7-3,4C344.9,340.5,343.8,342.6,341.9,345.5L341.9,345.5z"/>
	<path id="path24656" class="st42" d="M370.8,361.7l5.7-7c1.9-3.4,1.6-6.1-1-8.1c-1.1-0.8-2.2-2.9-3.4-6.4c-1.1-3.6-2.8-6.1-5-7.7
		c-3.1-2.3-5.6-3.6-7.6-4.1c-3.2-0.7-6.9,0-10.9,2c-5.2,2.6-8.5,4.5-9.8,5.6c-2.3,2-3.4,4.5-3.2,7.6l1,17.9c0.2,4.9,2.2,7.8,5.9,8.8
		c8,1.9,16.1,2.1,24.4,0.5c2.1-0.4,3.2-1.6,3.2-3.8C370,364.1,370.3,362.4,370.8,361.7L370.8,361.7z M377.8,354.9l-6,7.4
		c-0.6,0.7-0.9,2.5-0.9,5.5c0,2.3-1.1,3.7-3.4,4.1c-8.8,1.6-17.5,1.4-25.9-0.6c-4-1-6-4-6.2-9.2l-1.1-19c-0.2-3.3,0.9-5.9,3.4-8
		c1.4-1.2,4.9-3.2,10.4-5.9c4.3-2.2,8.2-2.9,11.6-2.2c2.2,0.5,4.8,1.9,8,4.3c2.4,1.7,4.2,4.4,5.3,8.2c1.2,3.7,2.4,6,3.6,6.9
		C379.5,348.5,379.9,351.3,377.8,354.9L377.8,354.9z"/>
	<path id="path33984" class="st43" d="M337.9,345c-0.7-5.2,2.3-8.8,9.2-10.8"/>
	<path id="path34060" class="st44" d="M341.9,345.5c-0.5,1.4-0.4,3.1,0.3,5.1c0.4,1.1,0.8,1.8,1.3,2.2c1.2,1.1,2.7,1.1,4.3,0.1
		c1.2-0.7,1.7-2.2,1.5-4.2l-0.9-2.9c-0.6-1.8-0.9-3.5-1-5.3s0.2-3.3,1.1-4.5s2.2-1.6,4-1.2l4.6,1.3c1.3,0.5,2.2,1.5,2.8,3.1
		c0.8,1.1,2.1,1.6,4,1.7l2.8-0.4c0.6-0.4,1.1-0.3,1.4,0.2c0.4,0.5,0.2,1.1-0.6,1.8c-1.9,0.3-3,1.2-3.2,2.6c-0.3,1.4,0,2.8,1.1,4.2
		c1,1.3,2.1,2.2,3.2,2.5c1.1,0.4,2,0.9,2.7,1.5c0.6,0.7,0.7,1.8,0.4,3.5c-0.4,1.7-1.6,2.6-3.5,2.7c-2,0.1-3.7-0.2-5.3-0.8
		c-1.6-0.7-3.4-0.8-5.5-0.5c-2.1,0.4-3.6,1-4.5,1.8c-1,0.9-1.1,2.1-0.5,3.7c0.7,1.5,1.6,2.7,2.9,3.4c1.4,0.8,3,1.2,4.7,1.1
		c1.9,0,3-0.8,3.2-2.5c0.2-1.5,0.7-2.6,1.6-3.4l0.3-0.2c1.4-0.7,2.7-1.3,4-1.7c1.4-0.4,2.4-1.4,3.1-2.9l1.7-5.1
		c0.5-1.9,0.4-3.4-0.3-4.3l-2-3.3l-2.5-3.6l-1.4-4.5c-0.4-1.2-1.3-2-2.4-2.3l-4.7-0.4c-0.4-0.1-0.8-0.5-1.3-1.2
		c-0.4-0.7-1.2-1-2.2-1.1c-1.1-0.1-2.4,0.1-4,0.7s-3.2,1.6-4.8,3c-1.6,1.4-2.6,2.7-3,4C344.9,340.5,343.8,342.6,341.9,345.5
		L341.9,345.5z"/>
	<path id="path34120" class="st45" d="M342.9,348.8c-0.2-1.8,0.3-3.1,1.3-4.1"/>
	<path id="path34122" class="st45" d="M353.4,361.3c0.1-0.8,0.5-1.2,1.3-1.1"/>
	<path id="path34124" class="st45" d="M365.7,346c0-1.1,0.6-1.7,1.6-1.9"/>
	<path id="path34126" class="st45" d="M354,332.7l1.4-0.1"/>
</g>
<text transform="matrix(1 0 0 1 270.4362 389.4614)" class="st11 st12">Neutro</text>
<g>
	<line class="st6" x1="391.9" y1="159.7" x2="332.4" y2="115.4"/>
	<g>
		<line class="st46" x1="382.6" y1="152.8" x2="332.4" y2="115.4"/>
		<g>
			<polygon points="391.9,159.7 382.8,144.7 381.9,152.3 374.9,155.3 			"/>
		</g>
	</g>
</g>
<g>
	<path d="M138.3,222.6c-28.6,30.3-57.3,60.7-85.9,91"/>
	<g>
		<path class="st47" d="M138.3,222.6c-26.6,28.1-53.1,56.3-79.7,84.4"/>
		<g>
			<path d="M52.4,313.7c1.8-4.2,3.4-9.9,3.6-14.2l3.4,6.8l7,3C62.1,309.7,56.5,311.7,52.4,313.7z"/>
		</g>
	</g>
</g>
<g>
	<path d="M150.6,232.2c-13.2,27.2-26.4,54.3-39.6,81.5"/>
	<g>
		<path class="st48" d="M150.6,232.2c-11.8,24.2-23.5,48.4-35.3,72.5"/>
		<g>
			<path d="M111,313.7c0.5-5,0.4-11.5-0.9-16.1l5.8,6l8.3,0.9C119.8,306.3,114.6,310.2,111,313.7z"/>
		</g>
	</g>
</g>
<g>
	<path d="M163.5,235.5c2.9,24.2,5.8,48.3,8.7,72.5"/>
	<g>
		<path class="st48" d="M163.5,235.5c2.5,20.9,5,41.8,7.6,62.7"/>
		<g>
			<path d="M172.2,308c-2.3-4.4-5.9-9.8-9.5-13l8.1,1.9l7.4-3.7C175.6,297.1,173.4,303.2,172.2,308z"/>
		</g>
	</g>
</g>
<g>
	<path d="M180.5,226.8c18.5,27.8,37,55.5,55.5,83.3"/>
	<g>
		<path class="st48" d="M180.5,226.8c16.7,25,33.4,50,50,75.1"/>
		<g>
			<path d="M236,310.1c-4-2.9-9.7-6.1-14.3-7.4l8.1-2l4.9-6.7C234.1,298.8,234.9,305.2,236,310.1z"/>
		</g>
	</g>
</g>
<g>
	<path d="M297.7,119.8c-37.5,24.9-75.1,49.7-112.6,74.6"/>
	<g>
		<path class="st49" d="M297.7,119.8C262.8,142.9,228,166,193.1,189"/>
		<g>
			<path d="M185.1,194.4c2.9-3.9,6-9.4,7.2-13.9l1.9,7.9l6.5,4.8C196.1,192.5,189.8,193.3,185.1,194.4z"/>
		</g>
	</g>
</g>
</svg>
